<?xml version="1.0" encoding="utf-8"?>
<!-- Generator: Adobe Illustrator 26.0.1, SVG Export Plug-In . SVG Version: 6.00 Build 0)  -->
<svg version="1.1" id="Layer_1" xmlns="http://www.w3.org/2000/svg" xmlns:xlink="http://www.w3.org/1999/xlink" x="0px" y="0px"
	 viewBox="0 0 800 800" style="enable-background:new 0 0 800 800;" xml:space="preserve">
<style type="text/css">
	.st0{fill:#0DCFD3;}
	.st1{fill:#231F20;}
</style>
<rect x="175.2" y="0" class="st0" width="449.5" height="449.5"/>
<g>
	<g>
		<path class="st1" d="M507.8,97.3c-10.4-10.4-27.4-10.4-37.8,0l-16.2,16.2l37.8,37.8l16.2-16.2C518.3,124.7,518.3,107.8,507.8,97.3
			z"/>
		
			<rect x="460.8" y="113.8" transform="matrix(0.7071 -0.7071 0.7071 0.7071 36.6844 369.6963)" class="st1" width="7.6" height="53.5"/>
		<path class="st1" d="M351.4,215.9c8.8,2.3,17.1,6.9,24,13.8c6.9,6.9,11.5,15.2,13.8,24l86.2-86.2l-37.8-37.8L351.4,215.9z"/>
		<path class="st1" d="M305.2,235.1c-17.9,17.9-20,34.8-22.2,52.6c-1.5,12.7-3.2,25.7-10.9,40.1c-0.8,1.5-0.5,3.3,0.7,4.5
			s3,1.5,4.5,0.7c14.4-7.8,27.5-9.4,40.1-10.9c17.8-2.2,34.7-4.2,52.6-22.2c32-32,0.3-64.5,0-64.8
			C369.7,234.8,337.3,203.1,305.2,235.1z M359.2,289.2c-1.5,1.5-3.9,1.5-5.4,0s-1.5-3.9,0-5.4c9-9,9-23.5,0-32.4
			c-1.5-1.5-1.5-3.9,0-5.4s3.9-1.5,5.4,0C371.2,257.9,371.2,277.2,359.2,289.2z"/>
	</g>
</g>
</svg>
