<?xml version="1.0" encoding="utf-8"?>
<!-- Generator: Adobe Illustrator 26.0.1, SVG Export Plug-In . SVG Version: 6.00 Build 0)  -->
<svg version="1.1" id="Layer_1" xmlns="http://www.w3.org/2000/svg" xmlns:xlink="http://www.w3.org/1999/xlink" x="0px" y="0px"
	 viewBox="0 0 800 800" style="enable-background:new 0 0 800 800;" xml:space="preserve">
<style type="text/css">
	.st0{fill:#0DCFD3;}
	.st1{fill:#FFFFFF;}
</style>
<rect x="175.2" y="0" class="st0" width="449.5" height="449.5"/>
<g>
	<path d="M282.8,273.1c0-2.5,0-5.1,0-7.6c0.1-0.3,0.2-0.6,0.2-0.9c0.7-9.6,1.5-19.3,2.2-28.9c0.9-12.5,1.7-25,2.5-37.5
		c1-15,2-30.1,3-45.1c0.3-4.3,1-8.5,2.4-12.5c2.5-7.1,6.9-12.2,14.3-14.4c3.7-1.1,7.5-1.5,11.3-1.5c16.8-0.3,33.6-0.6,50.4-0.9
		c24.9-0.5,49.8-1,74.8-1.5c7.9-0.2,15.7-0.4,23.6-0.7c2-0.1,3.9-0.3,5.9-0.4c3.3,0,6.6,0,10,0c0.3,0.1,0.7,0.1,1,0.2
		c2.6,0.4,5.3,0.6,7.9,1.2c8,1.7,14.1,6.1,17.6,13.6c1.6,3.5,2.7,7.2,3.1,11.1c0.6,5.2,1.1,10.3,1.4,15.5c0.5,6.6,0.7,13.3,1,19.9
		c0.1,2.5,0.3,5,0.5,7.6c0.3,3.8,1,7.5,0.7,11.3c-0.3,3,0.1,6.1,0.1,9.2c0.1,7.8,0.1,15.6,0.2,23.4c0.2,10.9,0.6,21.9-0.1,32.8
		c-0.3,4.6-1.1,9-3.5,13c-3.9,6.5-9.9,10.1-17.1,11.7c-7.6,1.7-15.3,2.2-23.1,2.4c-16.3,0.5-32.7,0.9-49,1.4c-1.5,0.1-2.9,0-4.6,0
		c0,6.8,0,13.4,0,20.1c0.3,0,0.7,0,1.1,0c12.5,0,25,0,37.5,0c3.2,0,5.6,2.3,5.9,5.5c0.4,3.6-1.4,6.5-4.6,7.2
		c-0.8,0.2-1.7,0.2-2.5,0.2c-18.5,0-37,0-55.5,0c-1.4,0-2.7,0.1-4.1,0.2c-8.1,0-16.3,0-24.5,0c-0.7-0.1-1.4-0.1-2.1-0.2
		c-5.6-0.5-11.3-0.8-16.9-1.4c-2.7-0.3-4.6-2.5-4.5-5.1c0-2.6,1.9-4.7,4.6-5.1c2-0.3,3.9-0.6,5.9-0.6c7.1-0.3,14.2-0.6,21.3-0.9
		c0.3,0,0.5-0.1,0.8-0.1c-0.7-6.3,0.3-12.4,0.5-18.7c-0.4,0-0.6,0-0.9,0c-21,0.2-41.9,0.5-62.9,0.7c-5.4,0.1-10.8,0-16.2-0.9
		c-10.1-1.7-16.3-7.3-18.6-17.2C283.3,277.1,283.1,275.1,282.8,273.1z M501.3,256.1c-0.1,0-0.3,0-0.4,0.1c-3.2,1-6.5,1.4-9.8,1.4
		c-4,0-7.9-0.3-11.9-0.2c-17.2,0.2-34.4,0.4-51.6,0.8c-18.6,0.4-37.1,0.9-55.7,1.4c-15.1,0.4-30.3,1-45.4,1.4
		c-9.6,0.3-19.2,0.3-28.9-0.5c-0.1,1.3-0.2,2.5-0.3,3.7c-0.3,3.5-0.5,7.1,0.1,10.6c0.9,4.4,3.5,7.3,7.5,7.6
		c3.5,0.3,7.1,0.6,10.6,0.5c7.3-0.2,14.6-0.9,21.9-1.1c18.3-0.5,36.6-0.9,55-1.4c10.5-0.3,21.1-0.6,31.6-0.9
		c13.6-0.4,27.2-0.8,40.8-1.3c7.5-0.3,15-0.6,22.5-1.1c2.9-0.2,5.8-0.9,8.7-1.7c3.2-0.9,5.2-3.3,5.4-6.7
		C501.4,264.6,501.3,260.3,501.3,256.1z M308.6,249.2c0.1-0.4,0.1-0.7,0.2-1c0.3-3.2,0.6-6.4,0.9-9.6c0.8-12.7,1.8-25.4,2.3-38.1
		c0.8-16.1,0.8-32.2,0.5-48.4c-0.1-3.9,1.7-5.8,5.5-5.9c9.7-0.3,19.4-0.5,29.1-0.8c15.3-0.4,30.5-0.8,45.8-1.2
		c19.2-0.5,38.4-1,57.6-1.5c7.4-0.2,14.9-0.6,22.3-0.7c3.3-0.1,6.7,0,10,0.6c6,1.1,9.8,4.7,10.9,10.8c0.4,2.5,0.6,5.2,0.5,7.7
		c-0.2,8.2-0.5,16.4-0.7,24.7c-0.5,18.3-1,36.7-1.5,55.1c0,0.4,0,0.8,0,1.1c3.4,0.5,6.5,0.9,9.8,1.4c0-4.3,0-8.6,0-13
		c0-5.9,0-11.8,0.1-17.7c0-0.9,0.1-1.7,0.1-2.6c0-0.7,0.1-1.4,0-2c-0.7-4.8-1.2-9.6-0.9-14.5c0-0.6-0.1-1.2-0.1-1.8
		c-0.1-3.5-0.4-7-0.3-10.5c0.3-11.9-0.3-23.8-1.2-35.7c-0.1-1.5-0.3-3-0.9-4.4c-1.1-2.6-3.1-4.3-5.7-5.4c-2.6-1.1-5.4-1.5-8.3-1.5
		c-7.9,0.1-15.9,0.1-23.8,0.2c-20.8,0.4-41.6,0.9-62.3,1.4c-12,0.3-24,0.7-36,0.9c-14.3,0.3-28.6,0.5-43,0.7c-1.6,0-3.2,0.1-4.7,0.2
		c-4.6,0.4-7.7,2.7-9.1,7.2c-0.2,0.6-0.4,1.3-0.5,1.9c-1.4,6.7-1.8,13.6-2.2,20.4c-0.5,9.6-0.9,19.1-1.4,28.6
		c-0.5,9.3-1.1,18.5-1.7,27.8c-0.4,6.7-0.8,13.5-1.2,20.2c-0.1,2.2-0.2,4.4-0.4,6.7C301.7,250.2,305.1,249.7,308.6,249.2z
		 M324.8,167.2c0,0-0.1,0-0.1,0c0.3,4.8,0.6,9.7,1,14.6c0.5,6.7,1,13.3,1.8,19.9c0.3,3.1,1.3,6,2.1,9c0.4,1.6,2,2.4,3.6,2.2
		c1.3-0.2,1.9-0.9,2.2-2.7c0.8-4.7,0.7-9.5,0.3-14.2c-0.7-7.5-1.4-15.1-2.3-22.6c-0.5-4.5-1.3-8.9-2-13.4c-0.2-1.2-0.7-2.1-1.9-2.5
		c-2.2-0.8-4.6,0.9-4.7,3.2C324.8,163,324.8,165.1,324.8,167.2z M391.1,311.1c0.5,0,0.9,0,1.1-0.1c5-0.6,9.9-1.3,14.9-1.9
		c0.7-0.1,0.9-0.4,1-1.1c0-3.8,0.1-7.6,0.1-11.4c0-0.3-0.1-0.5-0.1-0.8c-5.9,0.1-11.7,0.3-17.6,0.4
		C390.7,301.2,390.9,306.1,391.1,311.1z"/>
	<path class="st1" d="M501.3,256.1c0,4.3,0.2,8.5-0.1,12.7c-0.2,3.4-2.2,5.8-5.4,6.7c-2.8,0.8-5.8,1.5-8.7,1.7
		c-7.5,0.5-15,0.9-22.5,1.1c-13.6,0.5-27.2,0.9-40.8,1.3c-10.5,0.3-21.1,0.7-31.6,0.9c-18.3,0.5-36.7,0.8-55,1.4
		c-7.3,0.2-14.6,0.9-21.9,1.1c-3.5,0.1-7.1-0.2-10.6-0.5c-4-0.4-6.7-3.2-7.5-7.6c-0.7-3.5-0.4-7.1-0.1-10.6c0.1-1.3,0.2-2.5,0.3-3.7
		c9.7,0.8,19.3,0.7,28.9,0.5c15.1-0.4,30.3-1,45.4-1.4c18.6-0.5,37.1-1,55.7-1.4c17.2-0.3,34.4-0.6,51.6-0.8c4-0.1,7.9,0.2,11.9,0.2
		c3.3,0,6.6-0.4,9.8-1.4C501,256.1,501.2,256.1,501.3,256.1z M401.8,265.7c-2.6,0-5.4,0.7-7.9,2.5c-1.5,1.1-1.8,2.4-1,4
		c0.8,1.6,2.2,2.1,3.9,1.6c0.9-0.3,1.8-0.6,2.6-0.9c2.7-0.9,5.5-1.1,8.3-0.1c1.6,0.6,3-0.2,3.6-1.8c0.6-1.6,0-2.9-1.6-3.6
		C407.4,266.2,404.9,265.7,401.8,265.7z"/>
	<path class="st1" d="M308.6,249.2c-3.5,0.5-6.9,1-10.5,1.5c0.1-2.3,0.2-4.5,0.4-6.7c0.4-6.7,0.8-13.5,1.2-20.2
		c0.6-9.3,1.1-18.5,1.7-27.8c0.5-9.6,0.9-19.1,1.4-28.6c0.3-6.8,0.7-13.7,2.2-20.4c0.1-0.6,0.3-1.3,0.5-1.9c1.3-4.5,4.4-6.8,9.1-7.2
		c1.6-0.1,3.2-0.2,4.7-0.2c14.3-0.3,28.6-0.5,43-0.7c12-0.2,24-0.6,36-0.9c20.8-0.5,41.6-0.9,62.3-1.4c7.9-0.2,15.9-0.2,23.8-0.2
		c2.8,0,5.6,0.5,8.3,1.5c2.6,1.1,4.6,2.8,5.7,5.4c0.6,1.4,0.8,2.9,0.9,4.4c0.9,11.9,1.5,23.7,1.2,35.7c-0.1,3.5,0.2,7,0.3,10.5
		c0,0.6,0.1,1.2,0.1,1.8c-0.3,4.8,0.3,9.7,0.9,14.5c0.1,0.7,0,1.4,0,2c0,0.9-0.1,1.7-0.1,2.6c0,5.9-0.1,11.8-0.1,17.7
		c0,4.4,0,8.7,0,13c-3.2-0.5-6.4-0.9-9.8-1.4c0-0.2,0-0.7,0-1.1c0.5-18.3,1-36.7,1.5-55.1c0.2-8.2,0.6-16.4,0.7-24.7
		c0.1-2.6-0.1-5.2-0.5-7.7c-1-6.1-4.9-9.7-10.9-10.8c-3.3-0.6-6.7-0.7-10-0.6c-7.4,0.1-14.9,0.5-22.3,0.7c-19.2,0.5-38.4,1-57.6,1.5
		c-15.3,0.4-30.5,0.8-45.8,1.2c-9.7,0.2-19.4,0.5-29.1,0.8c-3.8,0.1-5.6,2.1-5.5,5.9c0.3,16.1,0.3,32.3-0.5,48.4
		c-0.6,12.7-1.5,25.4-2.3,38.1c-0.2,3.2-0.6,6.4-0.9,9.6C308.7,248.5,308.7,248.8,308.6,249.2z"/>
	<path class="st1" d="M324.8,167.2c0-2.1,0-4.3,0-6.4c0.1-2.4,2.4-4,4.7-3.2c1.2,0.4,1.8,1.3,1.9,2.5c0.7,4.4,1.5,8.9,2,13.4
		c0.9,7.5,1.6,15.1,2.3,22.6c0.5,4.7,0.5,9.5-0.3,14.2c-0.3,1.7-0.9,2.5-2.2,2.7c-1.7,0.2-3.2-0.6-3.6-2.2c-0.8-3-1.8-6-2.1-9
		c-0.8-6.6-1.3-13.3-1.8-19.9c-0.4-4.8-0.7-9.7-1-14.6C324.8,167.2,324.8,167.2,324.8,167.2z"/>
	<path class="st1" d="M391.1,311.1c-0.2-5-0.3-9.8-0.5-14.9c5.9-0.1,11.7-0.3,17.6-0.4c0,0.3,0.1,0.6,0.1,0.8
		c0,3.8-0.1,7.6-0.1,11.4c0,0.7-0.2,1-1,1.1c-5,0.6-9.9,1.3-14.9,1.9C391.9,311,391.6,311,391.1,311.1z"/>
	<path d="M401.8,265.7c3.1,0,5.6,0.6,8,1.7c1.6,0.7,2.1,2,1.6,3.6c-0.6,1.7-2,2.4-3.6,1.8c-2.8-1-5.5-0.9-8.3,0.1
		c-0.9,0.3-1.8,0.6-2.6,0.9c-1.7,0.6-3.1,0-3.9-1.6c-0.8-1.6-0.5-2.9,1-4C396.4,266.3,399.2,265.7,401.8,265.7z"/>
</g>
</svg>
