<?xml version="1.0" encoding="utf-8"?>
<!-- Generator: Adobe Illustrator 26.0.1, SVG Export Plug-In . SVG Version: 6.00 Build 0)  -->
<svg version="1.1" id="Layer_1" xmlns="http://www.w3.org/2000/svg" xmlns:xlink="http://www.w3.org/1999/xlink" x="0px" y="0px"
	 viewBox="0 0 523.3 520.6" style="enable-background:new 0 0 523.3 520.6;" xml:space="preserve">
<style type="text/css">
	.st0{fill:#FFFDFD;}
</style>
<g>
	<circle class="st0" cx="261.7" cy="260.3" r="260.3"/>
	<path d="M261.7,0C117.2,0,0,117.2,0,261.7c0,131.2,96.6,239.5,222.6,258.4V331h-64.7v-68.8h64.7v-45.8c0-75.8,36.9-109,99.9-109
		c30.2,0,46.1,2.2,53.7,3.3v60h-43c-26.7,0-36.1,25.3-36.1,53.9v37.6h78.4L364.8,331h-67.7v189.6c127.7-17.3,226.2-126.5,226.2-259
		C523.3,117.2,406.2,0,261.7,0z"/>
</g>
</svg>
