<?xml version="1.0" encoding="utf-8"?>
<!-- Generator: Adobe Illustrator 26.0.1, SVG Export Plug-In . SVG Version: 6.00 Build 0)  -->
<svg version="1.1" id="Icons" xmlns="http://www.w3.org/2000/svg" xmlns:xlink="http://www.w3.org/1999/xlink" x="0px" y="0px"
	 viewBox="0 0 518.6 523.2" style="enable-background:new 0 0 518.6 523.2;" xml:space="preserve">
<style type="text/css">
	.st0{fill:#FFFFFF;}
</style>
<g>
	<path class="st0" d="M390.1,523.2H119.3C55.1,523.2,9.2,477.3,9.2,413V128.5c0-64.3,45.9-110.1,110.1-110.1h270.8
		c64.3,0,110.1,45.9,110.1,110.1V413C500.2,472.7,454.3,523.2,390.1,523.2z"/>
	<g>
		<path d="M518.6,22.9v472.7c0,13.8-9.2,22.9-22.9,22.9H362.6V316.7H436l9.2-78h-78v-45.9c0-22.9,9.2-41.3,41.3-41.3h41.3V78
			c-22.9,0-41.3,0-64.3,0c-45.9-9.2-96.4,32.1-101,87.2c0,9.2,0,9.2,0,13.8v55.1h-73.4v78h64.3v206.5H22.9
			C9.2,518.6,0,509.4,0,495.7V22.9C0,9.2,9.2,0,22.9,0h472.7C509.4,0,518.6,9.2,518.6,22.9z"/>
	</g>
</g>
<g>
	<g>
		<path class="st0" d="M7.5-7L7.5-7c-3.4,0-6-2.6-6-6l0,0c0-3.4,2.6-6,6-6l0,0c3.4,0,6,2.6,6,6l0,0C13.4-9.6,10.8-7,7.5-7z"/>
		<g>
			<g>
				<path d="M7.5-11.9c0.6,0,1.1-0.6,1.1-1.1c0-0.2,0-0.4-0.2-0.6c-0.2-0.4-0.6-0.6-0.9-0.6c-0.4,0-0.7,0.2-0.9,0.4
					c0,0.4-0.2,0.6-0.2,0.7C6.3-12.4,6.9-11.9,7.5-11.9z"/>
				<polygon points="9.9,-14.3 9.9,-15.3 9.9,-15.4 9.7,-15.4 8.8,-15.4 8.8,-14.3 				"/>
				<path d="M9.2-13c0,0.9-0.7,1.7-1.7,1.7c-0.9,0-1.7-0.7-1.7-1.7c0-0.2,0-0.4,0.2-0.6H5.1v2.6c0,0.4,0.2,0.6,0.6,0.6h3.7
					c0.4,0,0.6-0.2,0.6-0.6v-2.6H9.1C9.2-13.4,9.2-13.2,9.2-13z"/>
				<path d="M7.5-19.2c-3.4,0-6.2,2.8-6.2,6.2s2.8,6.2,6.2,6.2s6.1-2.8,6.1-6.2S10.8-19.2,7.5-19.2z M10.6-13.6v2.6
					c0,0.7-0.6,1.1-1.1,1.1H5.6c-0.7,0-1.1-0.6-1.1-1.1v-2.6v-1.3c0-0.7,0.6-1.1,1.1-1.1h3.7c0.7,0,1.1,0.6,1.1,1.1v1.3
					C10.4-13.6,10.6-13.6,10.6-13.6z"/>
			</g>
		</g>
	</g>
</g>
</svg>
