<?xml version="1.0" encoding="utf-8"?>
<!-- Generator: Adobe Illustrator 26.0.1, SVG Export Plug-In . SVG Version: 6.00 Build 0)  -->
<svg version="1.1" id="Icons" xmlns="http://www.w3.org/2000/svg" xmlns:xlink="http://www.w3.org/1999/xlink" x="0px" y="0px"
	 viewBox="0 0 511.9 511.9" style="enable-background:new 0 0 511.9 511.9;" xml:space="preserve">
<style type="text/css">
	.st0{fill:#FFFFFF;}
</style>
<g>
	<path class="st0" d="M-46.2,229.6H-52c-1.4,0-2.4-1-2.4-2.4V221c0-1.4,1-2.4,2.4-2.4h5.9c1.4,0,2.4,1,2.4,2.4v6.2
		C-43.7,228.6-44.8,229.6-46.2,229.6z"/>
	<g>
		<path d="M-43.4,218.8v10.3c0,0.3-0.2,0.5-0.5,0.5h-2.9v-4.5h1.6l0.2-1.7h-1.7v-1c0-0.5,0.2-0.9,0.9-0.9h0.9V220
			c-0.5,0-0.9,0-1.4,0c-1-0.2-2.1,0.7-2.2,1.9c0,0.2,0,0.2,0,0.3v1.2h-1.4v1.7h1.4v4.5H-54c-0.3,0-0.5-0.2-0.5-0.5v-10.3
			c0-0.3,0.2-0.5,0.5-0.5h10.3C-43.6,218.3-43.4,218.4-43.4,218.8z"/>
	</g>
</g>
<g>
	<g>
		<path class="st0" d="M256,509.6L256,509.6C114.5,509.6,4.6,398.7,4.6,256l0,0C4.6,113.2,114.5,2.4,256,2.4l0,0
			c141.4,0,251.4,111,251.4,253.6l0,0C507.4,398.7,397.4,509.6,256,509.6z"/>
		<g>
			<g>
				<path d="M256,303.5c23.6,0,47.1-23.8,47.1-47.5c0-8,0-15.8-7.9-23.8c-7.9-15.8-23.6-23.8-39.3-23.8s-31.4,8-39.3,15.8
					c0,15.8-7.9,23.8-7.9,31.7C208.8,279.7,232.4,303.5,256,303.5z"/>
				<polygon points="358.1,200.5 358.1,160.9 358.1,152.9 350.2,152.9 311,152.9 311,200.5 				"/>
				<path d="M326.7,256c0,39.6-31.4,71.3-70.7,71.3s-70.7-31.7-70.7-71.3c0-8,0-15.8,7.9-23.8h-39.3v111c0,15.8,7.9,23.8,23.6,23.8
					h157.1c15.7,0,23.6-8,23.6-23.8v-111h-39.4C326.7,240.2,326.7,248,326.7,256z"/>
				<path d="M256-5.6C114.5-5.6-3.3,113.2-3.3,256S114.5,517.6,256,517.6S515.3,398.8,515.3,256S397.4-5.6,256-5.6z M389.5,232.2
					v111c0,31.7-23.6,47.5-47.1,47.5h-165c-31.4,0-47.1-23.8-47.1-47.5v-111v-55.5c0-31.7,23.6-47.5,47.1-47.5h157.1
					c31.4,0,47.1,23.8,47.1,47.5v55.5H389.5z"/>
			</g>
		</g>
	</g>
</g>
</svg>
