<?xml version="1.0" encoding="utf-8"?>
<!-- Generator: Adobe Illustrator 26.0.1, SVG Export Plug-In . SVG Version: 6.00 Build 0)  -->
<svg version="1.1" id="Layer_1" xmlns="http://www.w3.org/2000/svg" xmlns:xlink="http://www.w3.org/1999/xlink" x="0px" y="0px"
	 viewBox="0 0 800 800" style="enable-background:new 0 0 800 800;" xml:space="preserve">
<style type="text/css">
	.st0{fill:#0DCFD3;}
</style>
<rect x="175.2" y="0" class="st0" width="449.5" height="449.5"/>
<g>
	<path d="M281.9,106.2v250.1H532V106.2H281.9z M313.2,345.8h-20.8V325h20.9L313.2,345.8L313.2,345.8z M313.2,304.2h-20.8v-20.9h20.9
		L313.2,304.2L313.2,304.2z M313.2,262.5h-20.8v-20.9h20.9L313.2,262.5L313.2,262.5z M313.2,220.8h-20.8v-20.9h20.9L313.2,220.8
		L313.2,220.8z M313.2,179.1h-20.8v-20.9h20.9L313.2,179.1L313.2,179.1z M313.2,137.4h-20.8v-20.8h20.9L313.2,137.4L313.2,137.4z
		 M490.4,335.4H323.6v-93.8h166.8V335.4z M490.4,220.8H323.6V127h166.8V220.8z M521.6,345.8h-20.9V325h20.9V345.8z M521.6,304.2
		h-20.9v-20.9h20.9V304.2z M521.6,262.5h-20.9v-20.9h20.9V262.5z M521.6,220.8h-20.9v-20.9h20.9V220.8z M521.6,179.1h-20.9v-20.9
		h20.9V179.1z M521.6,137.4h-20.9v-20.8h20.9V137.4z"/>
</g>
</svg>
