<?xml version="1.0" encoding="utf-8"?>
<!-- Generator: Adobe Illustrator 26.0.1, SVG Export Plug-In . SVG Version: 6.00 Build 0)  -->
<svg version="1.1" id="Layer_1" xmlns="http://www.w3.org/2000/svg" xmlns:xlink="http://www.w3.org/1999/xlink" x="0px" y="0px"
	 viewBox="0 0 800 800" style="enable-background:new 0 0 800 800;" xml:space="preserve">
<style type="text/css">
	.st0{fill:#0DCFD3;}
</style>
<rect x="175.2" y="0" class="st0" width="449.5" height="449.5"/>
<g>
	<path d="M453.4,342.1c11.8,0,21.3-9.6,21.3-21.3V128.7c0-11.8-9.6-21.3-21.3-21.3H346.6c-11.8,0-21.3,9.6-21.3,21.3v192.1
		c0,11.8,9.6,21.3,21.3,21.3H453.4z M346.6,128.7h26.7l5.3,10.7h42.7l5.3-10.7h26.7v192.1H346.6V128.7z M410.7,299.5
		c0,5.9-4.8,10.7-10.7,10.7s-10.7-4.8-10.7-10.7s4.8-10.7,10.7-10.7S410.7,293.6,410.7,299.5z"/>
</g>
</svg>
