<?xml version="1.0" encoding="utf-8"?>
<!-- Generator: Adobe Illustrator 26.0.1, SVG Export Plug-In . SVG Version: 6.00 Build 0)  -->
<svg version="1.1" id="Layer_1" xmlns="http://www.w3.org/2000/svg" xmlns:xlink="http://www.w3.org/1999/xlink" x="0px" y="0px"
	 viewBox="0 0 800 800" style="enable-background:new 0 0 800 800;" xml:space="preserve">
<g>
	<path d="M426.8,759.9c5.9,0,10.7-4.9,10.7-10.7v-96.5c0-5.9-4.9-10.7-10.7-10.7h-53.7c-5.9,0-10.7,4.9-10.7,10.7v96.6
		c0,5.9,4.9,10.7,10.7,10.7L426.8,759.9L426.8,759.9z M373.2,652.7h13.4l2.7,5.4h21.4l2.7-5.4h13.4v96.6h-53.6L373.2,652.7
		L373.2,652.7z M405.4,738.5c0,2.9-2.4,5.4-5.4,5.4s-5.4-2.4-5.4-5.4c0-2.9,2.4-5.4,5.4-5.4S405.4,735.5,405.4,738.5z"/>
</g>
</svg>
