<?xml version="1.0" encoding="utf-8"?>
<!-- Generator: Adobe Illustrator 26.0.1, SVG Export Plug-In . SVG Version: 6.00 Build 0)  -->
<svg version="1.1" id="Icons" xmlns="http://www.w3.org/2000/svg" xmlns:xlink="http://www.w3.org/1999/xlink" x="0px" y="0px"
	 viewBox="0 0 651.9 651.9" style="enable-background:new 0 0 651.9 651.9;" xml:space="preserve">
<style type="text/css">
	.st0{fill:#FFFFFF;}
</style>
<g>
	<circle class="st0" cx="325.9" cy="325.9" r="316.3"/>
	<g>
		<path d="M325.9,0C143.8,0,0,143.8,0,325.9s143.8,325.9,325.9,325.9s325.9-143.8,325.9-325.9S508.1,0,325.9,0z M460.1,278
			L460.1,278c0,95.9-67.1,201.3-191.7,201.3c-38.3,0-76.7-9.6-105.4-28.8c9.6,0,9.6,0,19.2,0c28.8,0,57.5-9.6,86.3-28.8
			c-28.8,0-57.5-19.2-57.5-47.9h9.6c9.6,0,9.6,0,19.2,0c-28.8-9.6-57.5-28.8-57.5-67.1l0,0c9.6,9.6,19.2,9.6,28.8,9.6
			c-19.2-19.2-28.8-38.3-28.8-57.5c0-9.6,0-19.2,9.6-38.3c28.8,38.3,86.3,67.1,134.2,67.1c0-9.6,0-9.6,0-19.2
			c0-38.3,28.8-67.1,67.1-67.1c19.2,9.6,28.8,19.2,47.9,28.8c19.2,0,28.8-9.6,38.3-19.2c-9.6,19.2-19.2,28.8-28.8,38.3
			c9.6,0,28.8-9.6,38.3-9.6C479.3,249.2,469.7,268.4,460.1,278z"/>
	</g>
</g>
</svg>
