<?xml version="1.0" encoding="utf-8"?>
<!-- Generator: Adobe Illustrator 26.0.1, SVG Export Plug-In . SVG Version: 6.00 Build 0)  -->
<svg version="1.1" id="Icons" xmlns="http://www.w3.org/2000/svg" xmlns:xlink="http://www.w3.org/1999/xlink" x="0px" y="0px"
	 viewBox="0 0 539.1 539.1" style="enable-background:new 0 0 539.1 539.1;" xml:space="preserve">
<style type="text/css">
	.st0{fill:#FFFFFF;}
</style>
<g>
	<g>
		<circle class="st0" cx="269.5" cy="269.5" r="269.5"/>
		<g>
			<path d="M253.2,196c-24.5-57.2-57.2-114.3-98-163.4C73.5,65.3,8.2,147,0,236.9C81.7,236.9,171.5,220.5,253.2,196z"/>
			<path d="M285.9,179.7c57.2-24.5,122.5-57.2,179.7-89.8c-49-49-114.3-89.8-196-89.8c-24.5,0-57.2,0-81.7,8.2
				C228.7,73.5,253.2,122.5,285.9,179.7z"/>
			<path d="M334.9,285.9c49-16.3,98-24.5,155.2-24.5c16.3,0,32.7,0,49,0c0-57.2-16.3-106.2-49-147c-65.3,40.8-122.5,73.5-187.9,98
				C310.4,236.9,326.7,261.4,334.9,285.9z"/>
			<path d="M302.2,294c-8.2-24.5-24.5-49-32.7-73.5c-81.7,32.7-163.4,40.8-245,40.8c-8.2,0-16.3,0-24.5,0c0,0,0,0,0,8.2
				C0,334.9,24.5,400.2,65.3,441C130.7,375.7,212.4,326.7,302.2,294z"/>
			<path d="M490.1,294c-49,0-98,8.2-138.8,16.3c24.5,57.2,49,122.5,73.5,187.9c65.3-40.8,106.2-114.3,114.3-196
				C522.7,294,506.4,294,490.1,294z"/>
			<path d="M318.5,326.7c-89.8,32.7-163.4,81.7-228.7,147c49,40.8,114.3,65.3,179.7,65.3c40.8,0,81.7-8.2,122.5-32.7
				C367.5,449.2,343,383.9,318.5,326.7z"/>
		</g>
	</g>
</g>
</svg>
